<svg width="32" height="32" viewBox="0 0 32 32" fill="none" xmlns="http://www.w3.org/2000/svg">
<path d="M3.33 16.839V18.547H2.082V12.934H4.859C5.189 12.934 5.486 12.982 5.752 13.079C6.018 13.175 6.243 13.311 6.428 13.487C6.6174 13.6679 6.76739 13.886 6.86857 14.1276C6.96976 14.3692 7.01995 14.6291 7.016 14.891C7.01879 15.175 6.96083 15.4563 6.846 15.716C6.76153 15.9145 6.63535 16.0926 6.476 16.238C6.31868 16.3885 6.13627 16.5103 5.937 16.598L6.983 18.523H5.655C5.503 18.234 5.35 17.953 5.197 17.681C5.04064 17.4022 4.88762 17.1215 4.738 16.839H3.33ZM4.859 15.741C5.14 15.741 5.366 15.661 5.535 15.5C5.704 15.34 5.785 15.14 5.785 14.899C5.785 14.659 5.704 14.458 5.535 14.297C5.365 14.137 5.14 14.057 4.859 14.057H3.329V15.741H4.859ZM12.6 17.4V18.522H8.134V12.91H12.601V14.033H9.381V15.155H11.917V16.278H9.382V17.4H12.602H12.6ZM15.063 17.4H18.001V18.522H13.816V12.91H15.063V17.4ZM20.101 12.91H22.958L24.327 18.522H23.04L22.758 17.359H20.303L20.022 18.522H18.734L20.102 12.909L20.101 12.91ZM20.584 16.237H22.476L21.952 14.032H21.107L20.584 16.237ZM27.674 18.522H26.427V16.678L24.294 12.909H25.703L27.031 15.315H27.071L28.4 12.91H29.809L27.676 16.679V18.523L27.674 18.522ZM4.672 20.02H26.965L26.642 21.29H4.994L4.672 20.02ZM0 10.523H12.34V11.793H0.32L0 10.523ZM19.094 10.523H31.434L31.112 11.793H19.094V10.523ZM13.613 22.508H18.11L18.432 23.783H13.291L13.613 22.508Z" fill="white"/>
<path d="M22.116 28.468L20.622 22.511H19.294L20.328 26.639L15.86 25.427L11.391 26.64L12.415 22.511H11.089L9.607 28.467L15.86 26.753L22.116 28.468ZM19.115 11.76H18.382L18.044 10.084L17.663 8.17298L17.648 8.10198C17.316 6.44798 17.086 5.32798 17.038 5.14598C16.9438 4.87878 16.7985 4.63251 16.61 4.42098C16.3116 4.0764 15.8933 3.85831 15.44 3.81098C14.897 3.74598 14.551 3.79698 14.352 3.91298C14.24 3.97798 14.177 4.06298 14.118 4.21098C13.906 4.75298 13.493 4.95498 12.99 4.92398C12.9245 4.92073 12.8591 4.91539 12.794 4.90798C12.323 4.89139 11.852 4.87372 11.381 4.85498L11.343 4.85398C11.313 4.90798 11.281 4.97798 11.248 5.06098L10.9 6.15298L10.987 6.16798L11.743 6.29498C12.296 6.39298 12.685 6.48698 13.004 6.61998C13.576 6.85998 13.94 7.24898 13.834 7.82998C13.798 8.04398 13.674 8.64498 13.486 9.53498L13.474 9.58898L13.377 10.046L13.013 11.759H12.278C12.1291 11.7081 12.0041 11.6044 11.9267 11.4674C11.8492 11.3304 11.8248 11.1698 11.858 11.016C11.9805 10.452 12.1011 9.8877 12.22 9.32298L12.232 9.26998C12.372 8.60998 12.477 8.10298 12.533 7.81398C12.303 7.71698 11.985 7.63998 11.52 7.55798C11.371 7.53198 10.857 7.44798 10.769 7.43198C10.758 7.43 10.747 7.428 10.736 7.42598C10.658 7.45089 10.5816 7.48027 10.507 7.51398C10.4099 7.55514 10.3138 7.59882 10.219 7.64498C10.1062 7.70059 9.97949 7.72178 9.85471 7.70591C9.72994 7.69004 9.61259 7.6378 9.51728 7.55572C9.42198 7.47363 9.35293 7.36532 9.31874 7.24428C9.28455 7.12323 9.28672 6.9948 9.325 6.87498L10.033 4.65198C10.0373 4.63917 10.0419 4.6265 10.047 4.61398C10.297 3.96798 10.588 3.57398 11.13 3.56398C11.4227 3.438 11.7399 3.37917 12.0583 3.3918C12.3767 3.40443 12.6882 3.48821 12.97 3.63698C13.354 2.79398 14.153 2.36598 15.593 2.53698C16.3573 2.62148 17.0622 2.98976 17.568 3.56898C17.91 3.95398 18.145 4.39498 18.264 4.77198C18.325 4.98898 18.546 6.06198 18.905 7.84898L18.919 7.91998C19.1088 8.86641 19.2975 9.81308 19.485 10.76L19.525 10.957L19.538 11.027C19.5681 11.1795 19.5418 11.3378 19.464 11.4724C19.3862 11.6071 19.2622 11.7089 19.115 11.759V11.76ZM17.081 11.793H14.316L14.588 10.511H16.823L17.081 11.793Z" fill="white"/>
</svg>
