<svg width="372" height="165" viewBox="0 0 372 165" fill="none" xmlns="http://www.w3.org/2000/svg">
<path d="M24.8882 37.2034H50.238C55.9882 37.2034 60.8443 38.08 64.8063 39.8331C68.8034 41.5862 71.8362 44.1807 73.9049 47.6168C76.0086 51.0178 77.0605 55.2077 77.0605 60.1865C77.0605 63.6927 76.3417 66.9009 74.9042 69.8111C73.5017 72.6862 71.4681 75.1405 68.8034 77.1741C66.1737 79.1726 63.0181 80.6628 59.3366 81.6445L56.4966 82.7489H32.672L32.5668 74.4918H50.5536C54.2 74.4918 57.2329 73.8607 59.6522 72.5985C62.0715 71.3012 63.8947 69.5656 65.1219 67.3918C66.349 65.2179 66.9626 62.8162 66.9626 60.1865C66.9626 57.2413 66.3841 54.6643 65.227 52.4554C64.07 50.2465 62.2468 48.546 59.7574 47.3539C57.303 46.1267 54.1299 45.5131 50.238 45.5131H35.0387V113.779H24.8882V37.2034ZM69.6449 113.779L51.0269 79.0674L61.5981 79.0148L80.479 113.148V113.779H69.6449ZM113.402 114.831C109.44 114.831 105.846 114.164 102.621 112.832C99.43 111.465 96.6777 109.554 94.3636 107.099C92.0845 104.645 90.3314 101.735 89.1043 98.3691C87.8771 95.0031 87.2635 91.3216 87.2635 87.3245V85.1156C87.2635 80.4874 87.9472 76.3677 89.3146 72.7563C90.6821 69.1098 92.5403 66.0244 94.8895 63.4999C97.2386 60.9754 99.9034 59.0646 102.884 57.7673C105.864 56.47 108.949 55.8213 112.14 55.8213C116.207 55.8213 119.713 56.5226 122.659 57.9251C125.639 59.3275 128.076 61.291 129.969 63.8155C131.862 66.3049 133.265 69.2501 134.176 72.6511C135.088 76.017 135.544 79.6985 135.544 83.6956V88.0608H93.0487V80.1193H125.814V79.383C125.674 76.8585 125.148 74.4042 124.236 72.02C123.36 69.6358 121.957 67.6723 120.029 66.1296C118.101 64.5868 115.471 63.8155 112.14 63.8155C109.931 63.8155 107.897 64.2888 106.039 65.2355C104.181 66.1471 102.586 67.5145 101.253 69.3377C99.9209 71.161 98.8866 73.3874 98.1503 76.017C97.414 78.6467 97.0458 81.6796 97.0458 85.1156V87.3245C97.0458 90.0243 97.414 92.5663 98.1503 94.9505C98.9216 97.2997 100.026 99.3683 101.464 101.156C102.936 102.945 104.707 104.347 106.776 105.364C108.879 106.381 111.263 106.889 113.928 106.889C117.364 106.889 120.274 106.188 122.659 104.785C125.043 103.383 127.129 101.507 128.917 99.158L134.808 103.839C133.58 105.697 132.02 107.468 130.127 109.151C128.233 110.834 125.902 112.201 123.132 113.253C120.397 114.305 117.154 114.831 113.402 114.831ZM157.475 32.996V113.779H147.693V32.996H157.475ZM206.65 104.049V74.7548C206.65 72.5108 206.194 70.5649 205.282 68.917C204.406 67.234 203.073 65.9367 201.285 65.0251C199.497 64.1135 197.288 63.6577 194.658 63.6577C192.204 63.6577 190.048 64.0784 188.189 64.9199C186.366 65.7614 184.929 66.8659 183.877 68.2333C182.86 69.6007 182.352 71.0733 182.352 72.6511H172.622C172.622 70.6175 173.148 68.6014 174.2 66.6029C175.252 64.6044 176.759 62.7987 178.723 61.1858C180.721 59.5379 183.105 58.2406 185.875 57.2939C188.68 56.3122 191.801 55.8213 195.237 55.8213C199.374 55.8213 203.021 56.5226 206.176 57.9251C209.367 59.3275 211.856 61.4488 213.644 64.2888C215.468 67.0938 216.379 70.6175 216.379 74.86V101.367C216.379 103.26 216.537 105.276 216.853 107.415C217.203 109.554 217.712 111.395 218.378 112.937V113.779H208.227C207.737 112.657 207.351 111.167 207.07 109.308C206.79 107.415 206.65 105.662 206.65 104.049ZM208.333 79.2778L208.438 86.1149H198.603C195.833 86.1149 193.361 86.3428 191.187 86.7986C189.013 87.2193 187.19 87.868 185.718 88.7445C184.245 89.6211 183.123 90.7255 182.352 92.0579C181.58 93.3552 181.195 94.8804 181.195 96.6335C181.195 98.4217 181.598 100.052 182.404 101.525C183.211 102.997 184.42 104.172 186.033 105.048C187.681 105.89 189.697 106.311 192.081 106.311C195.062 106.311 197.691 105.679 199.97 104.417C202.249 103.155 204.055 101.612 205.387 99.7891C206.755 97.9658 207.491 96.1952 207.596 94.4772L211.751 99.158C211.506 100.631 210.84 102.261 209.753 104.049C208.666 105.837 207.211 107.555 205.387 109.203C203.599 110.816 201.46 112.166 198.971 113.253C196.517 114.305 193.747 114.831 190.661 114.831C186.805 114.831 183.421 114.077 180.511 112.569C177.636 111.062 175.392 109.045 173.779 106.521C172.201 103.961 171.412 101.104 171.412 97.9483C171.412 94.8979 172.008 92.2157 173.2 89.9016C174.393 87.5524 176.111 85.6065 178.355 84.0638C180.599 82.486 183.298 81.2939 186.454 80.4874C189.609 79.681 193.133 79.2778 197.025 79.2778H208.333ZM246.831 107.888L262.661 56.8732H273.075L250.249 122.562C249.723 123.964 249.022 125.472 248.145 127.085C247.304 128.733 246.217 130.293 244.885 131.766C243.552 133.238 241.939 134.43 240.046 135.342C238.188 136.289 235.961 136.762 233.367 136.762C232.595 136.762 231.614 136.657 230.422 136.446C229.23 136.236 228.388 136.061 227.897 135.92L227.845 128.032C228.125 128.067 228.563 128.102 229.159 128.137C229.791 128.207 230.229 128.242 230.474 128.242C232.683 128.242 234.559 127.944 236.102 127.348C237.644 126.787 238.942 125.823 239.994 124.455C241.08 123.123 242.01 121.282 242.781 118.933L246.831 107.888ZM235.208 56.8732L249.986 101.051L252.511 111.307L245.516 114.883L224.584 56.8732H235.208Z" fill="#2E2E2E"/>
</svg>
