<svg width="372" height="165" viewBox="0 0 372 165" fill="none" xmlns="http://www.w3.org/2000/svg">
<path d="M23.8882 36.4246H49.238C54.9882 36.4246 59.8443 37.3012 63.8063 39.0543C67.8034 40.8074 70.8362 43.4019 72.9049 46.838C75.0086 50.239 76.0605 54.4289 76.0605 59.4077C76.0605 62.9139 75.3417 66.1221 73.9042 69.0323C72.5017 71.9073 70.4681 74.3617 67.8034 76.3953C65.1737 78.3938 62.0181 79.8839 58.3366 80.8657L55.4966 81.9701H31.672L31.5668 73.713H49.5536C53.2 73.713 56.2329 73.0819 58.6522 71.8197C61.0715 70.5224 62.8947 68.7868 64.1219 66.613C65.349 64.4391 65.9626 62.0374 65.9626 59.4077C65.9626 56.4625 65.3841 53.8855 64.227 51.6766C63.07 49.4677 61.2468 47.7672 58.7574 46.5751C56.303 45.3479 53.1299 44.7343 49.238 44.7343H34.0387V113H23.8882V36.4246ZM68.6449 113L50.0269 78.2886L60.5981 78.236L79.479 112.369V113H68.6449ZM112.402 114.052C108.44 114.052 104.846 113.386 101.621 112.053C98.43 110.686 95.6777 108.775 93.3636 106.321C91.0845 103.866 89.3314 100.956 88.1043 97.5903C86.8771 94.2243 86.2635 90.5428 86.2635 86.5457V84.3368C86.2635 79.7086 86.9472 75.5889 88.3146 71.9775C89.6821 68.331 91.5403 65.2456 93.8895 62.7211C96.2386 60.1966 98.9034 58.2858 101.884 56.9885C104.864 55.6912 107.949 55.0425 111.14 55.0425C115.207 55.0425 118.713 55.7438 121.659 57.1462C124.639 58.5487 127.076 60.5122 128.969 63.0367C130.862 65.5261 132.265 68.4713 133.176 71.8723C134.088 75.2382 134.544 78.9197 134.544 82.9168V87.282H92.0487V79.3405H124.814V78.6042C124.674 76.0797 124.148 73.6254 123.236 71.2412C122.36 68.8569 120.957 66.8935 119.029 65.3507C117.101 63.808 114.471 63.0367 111.14 63.0367C108.931 63.0367 106.897 63.51 105.039 64.4567C103.181 65.3683 101.586 66.7357 100.253 68.5589C98.9209 70.3821 97.8866 72.6086 97.1503 75.2382C96.414 77.8679 96.0458 80.9007 96.0458 84.3368V86.5457C96.0458 89.2455 96.414 91.7875 97.1503 94.1717C97.9216 96.5209 99.0261 98.5895 100.464 100.378C101.936 102.166 103.707 103.568 105.776 104.585C107.879 105.602 110.263 106.11 112.928 106.11C116.364 106.11 119.274 105.409 121.659 104.007C124.043 102.604 126.129 100.728 127.917 98.3791L133.808 103.06C132.58 104.918 131.02 106.689 129.127 108.372C127.233 110.055 124.902 111.422 122.132 112.474C119.397 113.526 116.154 114.052 112.402 114.052ZM156.475 32.2172V113H146.693V32.2172H156.475ZM205.65 103.27V73.976C205.65 71.732 205.194 69.7861 204.282 68.1382C203.406 66.4552 202.073 65.1579 200.285 64.2463C198.497 63.3347 196.288 62.8789 193.658 62.8789C191.204 62.8789 189.048 63.2996 187.189 64.1411C185.366 64.9826 183.929 66.0871 182.877 67.4545C181.86 68.8219 181.352 70.2945 181.352 71.8723H171.622C171.622 69.8387 172.148 67.8226 173.2 65.8241C174.252 63.8256 175.759 62.0199 177.723 60.407C179.721 58.7591 182.105 57.4618 184.875 56.5151C187.68 55.5334 190.801 55.0425 194.237 55.0425C198.374 55.0425 202.021 55.7438 205.176 57.1462C208.367 58.5487 210.856 60.67 212.644 63.51C214.468 66.315 215.379 69.8387 215.379 74.0812V100.588C215.379 102.481 215.537 104.497 215.853 106.636C216.203 108.775 216.712 110.616 217.378 112.159V113H207.227C206.737 111.878 206.351 110.388 206.07 108.53C205.79 106.636 205.65 104.883 205.65 103.27ZM207.333 78.499L207.438 85.3361H197.603C194.833 85.3361 192.361 85.564 190.187 86.0198C188.013 86.4405 186.19 87.0892 184.718 87.9657C183.245 88.8423 182.123 89.9467 181.352 91.2791C180.58 92.5764 180.195 94.1016 180.195 95.8547C180.195 97.6428 180.598 99.2732 181.404 100.746C182.211 102.218 183.42 103.393 185.033 104.27C186.681 105.111 188.697 105.532 191.081 105.532C194.062 105.532 196.691 104.901 198.97 103.638C201.249 102.376 203.055 100.833 204.387 99.0103C205.755 97.187 206.491 95.4164 206.596 93.6984L210.751 98.3791C210.506 99.8518 209.84 101.482 208.753 103.27C207.666 105.058 206.211 106.776 204.387 108.424C202.599 110.037 200.46 111.387 197.971 112.474C195.517 113.526 192.747 114.052 189.661 114.052C185.805 114.052 182.421 113.298 179.511 111.79C176.636 110.283 174.392 108.267 172.779 105.742C171.201 103.183 170.412 100.325 170.412 97.1695C170.412 94.1191 171.008 91.4369 172.2 89.1228C173.393 86.7736 175.111 84.8277 177.355 83.285C179.599 81.7072 182.298 80.5151 185.454 79.7086C188.609 78.9022 192.133 78.499 196.025 78.499H207.333ZM245.831 107.11L261.661 56.0944H272.075L249.249 121.783C248.723 123.186 248.022 124.693 247.145 126.306C246.304 127.954 245.217 129.514 243.885 130.987C242.552 132.459 240.939 133.652 239.046 134.563C237.188 135.51 234.961 135.983 232.367 135.983C231.595 135.983 230.614 135.878 229.422 135.668C228.23 135.457 227.388 135.282 226.897 135.142L226.845 127.253C227.125 127.288 227.563 127.323 228.159 127.358C228.791 127.428 229.229 127.463 229.474 127.463C231.683 127.463 233.559 127.165 235.102 126.569C236.644 126.008 237.942 125.044 238.994 123.676C240.08 122.344 241.01 120.503 241.781 118.154L245.831 107.11ZM234.208 56.0944L248.986 100.272L251.511 110.528L244.516 114.104L223.584 56.0944H234.208Z" fill="white"/>
</svg>
